HIERARCHY
ROOT Root
{
	OFFSET 0.000000 0.000000 0.000000 
	CHANNELS 6 Xposition Yposition Zposition Xrotation Yrotation Zrotation
	JOINT LHIP
	{
		OFFSET 3.939827 0.000000 0.000000 
		CHANNELS 3 Xrotation  Yrotation Zrotation
		JOINT LKNEE
		{
			OFFSET 0.000000 -17.893505 0.000000 
			CHANNELS 3 Xrotation  Yrotation Zrotation
			JOINT LANK
			{
				OFFSET 0.000000 -15.102188 0.000000 
				CHANNELS 3 Xrotation  Yrotation Zrotation
				JOINT LTOES
				{
					OFFSET 0.000000 0.000000 5.934456 
					CHANNELS 3 Xrotation  Yrotation Zrotation
					End Site
					{
						OFFSET 0.000000 0.000000 2.922160 
					}
				}
			}
		}
	}
	JOINT RHIP
	{
		OFFSET -3.939827 0.000000 0.000000 
		CHANNELS 3 Xrotation  Yrotation Zrotation
		JOINT RKNEE
		{
			OFFSET 0.000000 -17.893505 0.000000 
			CHANNELS 3 Xrotation  Yrotation Zrotation
			JOINT RANK
			{
				OFFSET 0.000000 -15.102188 0.000000 
				CHANNELS 3 Xrotation  Yrotation Zrotation
				JOINT RTOES
				{
					OFFSET 0.000000 0.000000 5.934456 
					CHANNELS 3 Xrotation  Yrotation Zrotation
					End Site
					{
						OFFSET 0.000000 0.000000 2.922160 
					}
				}
			}
		}
	}
	JOINT LOWBACKTARGET
	{
		OFFSET 0.000000 0.000000 0.000000 
		CHANNELS 3 Xrotation  Yrotation Zrotation
		JOINT LOWERBACK
		{
			OFFSET 0.000000 6.803836 0.000000 
			CHANNELS 3 Xrotation  Yrotation Zrotation
			JOINT UPPERBACK
			{
				OFFSET 0.000000 6.818373 0.000000 
				CHANNELS 3 Xrotation  Yrotation Zrotation
				JOINT THORAX
				{
					OFFSET 0.000000 6.818374 0.000000 
					CHANNELS 3 Xrotation  Yrotation Zrotation
					JOINT LSHOROTATE
					{
						OFFSET 0.000000 0.000000 0.000000 
						CHANNELS 3 Xrotation  Yrotation Zrotation
						JOINT LSHO
						{
							OFFSET 6.795113 0.000000 0.000000 
							CHANNELS 3 Xrotation  Yrotation Zrotation
							JOINT LUPARMROLL
							{
								OFFSET 6.609026 0.000000 0.000000 
								CHANNELS 3 Xrotation  Yrotation Zrotation
								JOINT LELB
								{
									OFFSET 6.611931 0.000000 0.000000 
									CHANNELS 3 Xrotation  Yrotation Zrotation
									JOINT LWRIROLL
									{
										OFFSET 5.117413 0.000000 0.000000 
										CHANNELS 3 Xrotation  Yrotation Zrotation
										JOINT LWRI
										{
											OFFSET 5.117413 0.000000 0.000000 
											CHANNELS 3 Xrotation  Yrotation Zrotation
											End Site
											{
												OFFSET 3.151861 0.000000 0.000000 
											}
										}
									}
								}
							}
						}
					}
					JOINT RSHOROTATE
					{
						OFFSET 0.000000 0.000000 0.000000 
						CHANNELS 3 Xrotation  Yrotation Zrotation
						JOINT RSHO
						{
							OFFSET -6.795113 0.000000 0.000000 
							CHANNELS 3 Xrotation  Yrotation Zrotation
							JOINT RUPARMROLL
							{
								OFFSET -6.609026 0.000000 0.000000 
								CHANNELS 3 Xrotation  Yrotation Zrotation
								JOINT RELB
								{
									OFFSET -6.611931 0.000000 0.000000 
									CHANNELS 3 Xrotation  Yrotation Zrotation
									JOINT RWRIROLL
									{
										OFFSET -5.117413 0.000000 0.000000 
										CHANNELS 3 Xrotation  Yrotation Zrotation
										JOINT RWRI
										{
											OFFSET -5.117413 0.000000 0.000000 
											CHANNELS 3 Xrotation  Yrotation Zrotation
											End Site
											{
												OFFSET -3.151861 0.000000 0.000000 
											}
										}
									}
								}
							}
						}
					}
					JOINT NECKTARGET
					{
						OFFSET 0.000000 0.000000 0.000000 
						CHANNELS 3 Xrotation  Yrotation Zrotation
						JOINT HEAD
						{
							OFFSET 0.000000 4.175345 0.000000 
							CHANNELS 3 Xrotation  Yrotation Zrotation
							End Site
							{
								OFFSET 0.000000 4.134638 0.000000 
							}
						}
					}
				}
			}
		}
	}
}
MOTION
Frames: 4
Frame Time: 0.016667
37.641899 31.482265 7.329483 -174.431091 -8.559208 173.759705 -24.448853 -9.144014 36.828880 45.165756 -3.516853 -3.488744 30.589193 -12.533176 -15.393600 -43.984852 0.019212 0.017076 -25.057577 -1.070432 -11.710063 61.213078 -0.832016 -0.471333 12.598307 -3.273230 19.504063 -34.540546 -0.049261 0.012148 -168.593018 -0.273742 177.924713 162.867661 0.923278 -176.985001 5.185650 -0.717291 0.378358 0.000000 0.129569 0.000000 -0.000000 0.818418 9.968964 -110.451401 -61.264282 -101.303566 -45.946774 0.000000 0.000000 -0.020653 -32.923199 -0.004841 -19.941944 0.000000 0.000000 -2.440129 -6.874443 -19.597404 -0.000001 -6.243247 -13.667264 -118.575020 58.187241 108.243568 -54.507420 0.000000 0.000000 0.028803 31.622383 -0.037180 -13.915859 0.000000 0.000000 -0.837288 -9.241673 -5.199525 -2.211799 0.168401 -6.566195 -1.458567 -9.770967 2.927900 
37.661896 31.474260 7.337437 -174.398499 -8.563627 173.727219 -24.385748 -9.213030 36.872044 45.143864 -3.484018 -3.482118 30.596714 -12.498915 -15.392436 -44.007942 0.048895 0.004595 -25.057180 -1.142612 -11.667539 61.247684 -0.866749 -0.482845 12.500333 -3.207839 19.460114 -34.529758 -0.024354 0.009684 -168.588516 -0.248660 177.925629 162.915634 0.898734 -176.999435 5.216393 -0.746233 0.380525 0.000000 0.148580 0.000000 0.000000 0.812746 9.965767 -110.328979 -61.267288 -101.163826 -45.830536 0.000000 0.000000 -0.027387 -32.975273 -0.012764 -20.057619 0.000000 0.000000 -2.454908 -6.951630 -19.506168 -0.000003 -6.232887 -13.686699 -118.597710 58.188122 108.242355 -54.488060 0.000000 0.000000 0.008705 31.633902 -0.018597 -13.876640 0.000000 0.000000 -0.845981 -9.281406 -5.231001 -2.222885 0.169014 -6.551566 -1.393774 -9.723384 2.888879 
37.681900 31.466259 7.345388 -174.365906 -8.568061 173.694687 -24.322584 -9.282001 36.915306 45.121986 -3.451185 -3.475481 30.604214 -12.464639 -15.391266 -44.031063 0.078583 -0.007873 -25.056740 -1.214790 -11.625011 61.282288 -0.901488 -0.494337 12.402428 -3.142372 19.416306 -34.518963 0.000553 0.007215 -168.584015 -0.223577 177.926529 162.963608 0.874180 -177.013840 5.247139 -0.775174 0.382706 0.000000 0.167591 0.000000 0.000000 0.807074 9.962569 -110.206581 -61.270149 -101.024094 -45.714317 0.000000 0.000000 -0.034134 -33.027325 -0.020699 -20.173317 0.000000 0.000000 -2.469568 -7.028840 -19.414944 0.000000 -6.222528 -13.706129 -118.620415 58.189011 108.241165 -54.468727 0.000000 0.000000 -0.011400 31.645428 -0.000007 -13.837426 0.000000 0.000000 -0.854696 -9.321145 -5.262488 -2.233972 0.169624 -6.536940 -1.328958 -9.675852 2.849808 
37.701897 31.452930 7.348019 -174.310226 -8.539620 173.621811 -24.296263 -9.290131 37.039593 45.161045 -3.452206 -3.460103 30.596939 -12.463917 -15.405319 -44.065933 0.042122 -0.012348 -25.035919 -1.216966 -11.510448 61.354263 -0.917246 -0.485576 12.290777 -3.127861 19.418415 -34.486752 -0.005157 -0.000776 -168.592987 -0.256824 177.906891 162.964783 0.897960 -177.040451 5.226550 -0.746836 0.388855 0.000000 0.167623 0.000000 -0.000031 0.742216 10.001496 -110.067963 -61.257008 -100.934784 -45.777374 0.000000 0.000000 -0.035573 -33.051876 -0.024152 -20.156509 0.000000 0.000000 -2.454298 -6.976383 -19.437424 -0.000033 -6.181043 -13.770410 -118.425110 58.141685 108.102882 -54.460781 0.000000 0.000000 -0.014333 31.666348 -0.005984 -13.827271 0.000000 0.000000 -0.859530 -9.377660 -5.260668 -2.166561 0.161121 -6.495716 -1.294635 -9.656815 2.899225 
